<svg version="1.1" xmlns="http://www.w3.org/2000/svg" xmlns:xlink="http://www.w3.org/1999/xlink" x="0px" y="0px" viewBox="0 0 1000 1000" enable-background="new 0 0 1000 1000">
<g><g transform="translate(0.000000,512.000000) scale(0.100000,-0.100000)"><path d="M4622.7,5013.8c-632.5-53.7-1215.1-214.7-1782.4-492.6c-500.2-245.3-856.7-498.3-1263-891.2c-417.8-408.2-722.6-828-981.3-1353.1c-241.5-494.5-389.1-979.4-471.5-1552.4c-32.6-226.2-32.6-981.3,0-1207.4c136.1-950.6,504.1-1803.5,1082.9-2506.9c1353.1-1642.5,3595.5-2229,5571.5-1458.5C8043.7-3953.9,9071-2924.7,9569.3-1652.1C9772.5-1128.9,9876-626.7,9897.1-42.2c38.3,1119.3-302.8,2200.2-981.3,3104.9c-933.4,1243.9-2420.6,1979.8-3957.7,1960.7C4816.2,5021.4,4664.8,5017.6,4622.7,5013.8z M5408.5,3446c47.9-46,47.9-49.8,47.9-389.1v-343.1l164.8-40.2c636.3-157.2,1029.2-622.9,1090.5-1291.8c11.5-132.2,9.6-149.5-26.8-185.9c-38.3-38.3-61.3-40.3-402.5-40.3c-442.7,0-410.1-17.2-461.9,249.2c-24.9,134.2-97.7,293.2-182.1,392.9c-210.8,258.7-755.1,314.3-1061.8,109.3c-304.7-205.1-364.2-759-111.2-1036.9c118.8-130.3,419.7-283.7,858.6-435.1c839.5-291.3,1251.5-634.4,1391.4-1157.6c24.9-92,32.6-195.5,32.6-402.5c0-247.2-5.8-295.2-51.7-431.2c-65.2-195.5-159.1-354.6-297.1-494.5c-197.4-201.2-509.8-362.2-816.5-417.8l-126.5-23v-333.5c0-327.7,0-333.5-47.9-379.5c-44.1-46-55.6-47.9-312.4-47.9c-375.6,0-356.5-21.1-368,404.4l-9.6,331.6l-145.7,23c-408.2,63.2-741.7,230-994.7,498.3c-195.5,208.9-312.4,492.5-337.3,822.2c-11.5,136.1-7.7,159.1,26.8,201.2c38.3,47.9,42.2,47.9,381.4,53.6c410.2,5.8,429.3,0,452.3-139.9c61.3-369.9,162.9-534.7,406.3-657.4c208.9-103.5,552-139.9,795.4-82.4c394.8,93.9,611.4,398.7,555.8,782c-47.9,348.8-297.1,548.1-977.5,782c-548.1,187.8-883.5,375.6-1113.5,619c-235.7,249.2-323.9,469.6-339.2,849.1c-17.3,460,90.1,764.7,366.1,1040.7c86.2,86.2,212.8,187.8,281.7,228.1c132.3,76.7,410.2,174.4,561.6,195.5l90.1,13.4v345c0,339.2,0,343.1,47.9,389.1c44.1,46,55.6,47.9,316.2,47.9C5352.9,3493.9,5364.4,3492,5408.5,3446z"/></g></g>
</svg>