<svg xmlns="http://www.w3.org/2000/svg" viewBox="0 0 100 100" class="svg-icon">
    <rect x="1" y="25" width="98" height="50" rx="0.5" ry="0.5" fill="none" stroke="#FFF" />

    <circle cx="50" cy="50" r="13" fill="none" stroke-width="1" stroke="#FFF" />
    <text x="50" y="52" dominant-baseline="middle" text-anchor="middle" font-size="24" fill="#FFF">$</text>

    <circle cx="78" cy="50" r="3" fill="none" stroke-width="1" stroke="#FFF" />
    <circle cx="22" cy="50" r="3" fill="none" stroke-width="1" stroke="#FFF" />
    
    <line x1="12" y1="30" x2="88" y2="30" stroke-width="1" stroke="#FFF" />
    <line x1="7" y1="35" x2="7" y2="65" stroke-width="1" stroke="#FFF" />
    <line x1="93" y1="35" x2="93" y2="65" stroke-width="1" stroke="#FFF" />
    <line x1="12" y1="70" x2="88" y2="70" stroke-width="1" stroke="#FFF" />

    <path fill="none" stroke="#FFF" stroke-width="1" d="M7,65 a5,5 0 0,1 5,5" />
    <circle cx="7" cy="65" r="0.5" fill="#FFF" />
    <circle cx="12" cy="70" r="0.5" fill="#FFF" />

    <path fill="none" stroke="#FFF" stroke-width="1" d="M12,30 a5,5 0 0,1 -5,5" />
    <circle cx="7" cy="35" r="0.5" fill="#FFF" />
    <circle cx="12" cy="30" r="0.5" fill="#FFF" />

    <path fill="none" stroke="#FFF" stroke-width="1" d="M88,70 a5,5 0 0,1 5,-5" />
    <circle cx="93" cy="65" r="0.5" fill="#FFF" />
    <circle cx="88" cy="70" r="0.5" fill="#FFF" />

    <path fill="none" stroke="#FFF" stroke-width="1" d="M93,35 a5,5 0 0,1 -5,-5" />
    <circle cx="93" cy="35" r="0.5" fill="#FFF" />
    <circle cx="88" cy="30" r="0.5" fill="#FFF" />
</svg>